<?xml version="1.0" encoding="UTF-8"?>
<svg version="1.1" xmlns="http://www.w3.org/2000/svg" width="48" height="48">
<path d="M0 0 C1.56556928 0.76458035 3.12914439 1.53332219 4.6875 2.3125 C4.6875 5.2825 4.6875 8.2525 4.6875 11.3125 C-5.8342573 16.9919308 -16.41905661 22.38111588 -27.3125 27.3125 C-26.6525 27.76625 -25.9925 28.22 -25.3125 28.6875 C-24.6525 29.22375 -23.9925 29.76 -23.3125 30.3125 C-23.3125 30.9725 -23.3125 31.6325 -23.3125 32.3125 C-28.47198276 35.50646552 -28.47198276 35.50646552 -32.5625 34.5625 C-34.1574466 33.83752427 -35.74547876 33.09601062 -37.3125 32.3125 C-37.3125 29.3425 -37.3125 26.3725 -37.3125 23.3125 C-27.03166045 17.87096777 -16.75471912 12.43981717 -6.3125 7.3125 C-7.6325 5.9925 -8.9525 4.6725 -10.3125 3.3125 C-4.16879252 -0.86522109 -4.16879252 -0.86522109 0 0 Z " fill="#00B2D1" transform="translate(40.3125,6.6875)"/>
<path d="M0 0 C0 5.94 0 11.88 0 18 C-6 21 -6 21 -7.921875 20.91015625 C-11.0865395 19.52412838 -14.17750983 18.01433693 -17.25 16.4375 C-17.8996875 16.10814453 -18.549375 15.77878906 -19.21875 15.43945312 C-20.81434294 14.62992435 -22.40742483 13.81544958 -24 13 C-24 12.34 -24 11.68 -24 11 C-18.7480916 7.94656489 -18.7480916 7.94656489 -15.375 8.1875 C-13.12025829 8.95885901 -11.08186188 9.84341007 -9 11 C-8.95875 9.741875 -8.9175 8.48375 -8.875 7.1875 C-8.61328125 4.98046875 -8.61328125 4.98046875 -8 3 C-5.23782659 1.1193713 -3.37036422 0 0 0 Z " fill="#00B0CF" transform="translate(45,21)"/>
<path d="M0 0 C3.16607207 1.44804847 6.29810211 2.92319664 9.3984375 4.5078125 C10.45804688 5.04664063 11.51765625 5.58546875 12.609375 6.140625 C13.40601562 6.55054688 14.20265625 6.96046875 15.0234375 7.3828125 C15.0234375 8.0428125 15.0234375 8.7028125 15.0234375 9.3828125 C9.79691816 12.42148653 9.79691816 12.42148653 6.5234375 12.2578125 C3.53971611 11.21351001 0.80882355 9.87267015 -1.9765625 8.3828125 C-1.91855469 8.99769531 -1.86054688 9.61257812 -1.80078125 10.24609375 C-1.66344414 12.70638992 -1.61747579 14.94275344 -1.9765625 17.3828125 C-4.3989093 19.48642946 -5.75901884 20.3828125 -8.9765625 20.3828125 C-8.9765625 14.4428125 -8.9765625 8.5028125 -8.9765625 2.3828125 C-2.9765625 -0.6171875 -2.9765625 -0.6171875 0 0 Z " fill="#00B3D2" transform="translate(11.9765625,6.6171875)"/>
<path d="M0 0 C2.49781811 1.15593192 4.67105104 2.50947267 7 4 C4.4518614 7.11439162 1.87937797 8.08720518 -2 9 C-6.4386798 8.72824409 -9.33537588 7.47901044 -13 5 C-9.13846376 0.75231013 -5.78761206 -0.68089554 0 0 Z " fill="#00B0CE" transform="translate(27,0)"/>
<path d="M0 0 C2.49781811 1.15593192 4.67105104 2.50947267 7 4 C4.02742827 7.26982891 1.6050175 8.78599767 -2.8125 9.375 C-7.04077463 8.87755593 -9.42837478 7.28584014 -13 5 C-9.13846376 0.75231013 -5.78761206 -0.68089554 0 0 Z " fill="#00ADCB" transform="translate(27,39)"/>
</svg>
